<svg width="512" height="512" viewBox="0 0 512 512" fill="none" xmlns="http://www.w3.org/2000/svg">
<g clip-path="url(#clip0_148_35)">
<rect width="512" height="512" rx="100" fill="#FDEA92"/>
<path d="M-1.23388 70.3097L-6.51715 9.90725L43.153 -24.8721L98.1057 0.751366L103.393 61.1542L53.7179 95.9369L-1.23388 70.3097ZM42.8884 -24.9955L42.8885 -24.9954L42.8884 -24.9955Z" fill="#FEBE00" stroke="#CD9E13" stroke-width="20"/>
<path d="M70.4751 166.349L65.1918 105.946L114.862 71.1669L169.815 96.7904L175.102 157.193L125.427 191.976L70.4751 166.349ZM114.597 71.0436L114.598 71.0436L114.597 71.0436Z" fill="#FEBE00" stroke="#CD9E13" stroke-width="20"/>
<path d="M20.5352 277.114L15.2519 216.711L64.922 181.932L119.875 207.555L125.162 267.958L75.487 302.741L20.5352 277.114ZM64.6574 181.808L64.6576 181.809L64.6574 181.808Z" fill="#FEBE00" stroke="#CD9E13" stroke-width="20"/>
<path d="M-49.8935 179.154L-55.1768 118.751L-5.50671 83.9721L49.446 109.596L54.7331 169.998L5.05825 204.781L-49.8935 179.154ZM-5.7713 83.8487L-5.77115 83.8488L-5.7713 83.8487Z" fill="#FEBE00" stroke="#CD9E13" stroke-width="20"/>
<path d="M122.977 59.4252L117.693 -0.977271L167.363 -35.7567L222.316 -10.1332L227.603 50.2697L177.928 85.0524L122.977 59.4252ZM167.099 -35.88L167.099 -35.88L167.099 -35.88Z" fill="#FEBE00" stroke="#CD9E13" stroke-width="20"/>
<path d="M141.544 266.869L136.261 206.467L185.931 171.688L240.884 197.311L246.171 257.714L196.496 292.497L141.544 266.869ZM185.667 171.564L185.667 171.564L185.667 171.564Z" fill="#FEBE00" stroke="#CD9E13" stroke-width="20"/>
<path d="M241.425 48.5409L236.142 -11.8615L285.812 -46.6409L340.764 -21.0174L346.051 39.3854L296.377 74.1681L241.425 48.5409ZM285.547 -46.7643L285.547 -46.7642L285.547 -46.7643Z" fill="#FEBE00" stroke="#CD9E13" stroke-width="20"/>
<path d="M262.553 259.827L257.27 199.424L306.94 164.645L361.893 190.268L367.18 250.671L317.505 285.454L262.553 259.827ZM306.675 164.522L306.676 164.522L306.675 164.522Z" fill="#FEBE00" stroke="#CD9E13" stroke-width="20"/>
<path d="M193.405 159.306L188.122 98.9033L237.792 64.124L292.745 89.7475L298.032 150.15L248.357 184.933L193.405 159.306ZM237.528 64.0006L237.528 64.0007L237.528 64.0006Z" fill="#FEBE00" stroke="#CD9E13" stroke-width="20"/>
<path d="M208.766 364.31L203.483 303.907L253.153 269.128L308.106 294.751L313.393 355.154L263.718 389.937L208.766 364.31ZM252.888 269.004L252.889 269.005L252.888 269.004Z" fill="#FEBE00" stroke="#CD9E13" stroke-width="20"/>
<path d="M280.475 460.349L275.192 399.946L324.862 365.167L379.815 390.79L385.102 451.193L335.427 485.976L280.475 460.349ZM324.597 365.044L324.598 365.044L324.597 365.044Z" fill="#FEBE00" stroke="#CD9E13" stroke-width="20"/>
<path d="M230.535 571.114L225.252 510.711L274.922 475.932L329.875 501.555L335.162 561.958L285.487 596.741L230.535 571.114ZM274.657 475.808L274.658 475.809L274.657 475.808Z" fill="#FEBE00" stroke="#CD9E13" stroke-width="20"/>
<path d="M160.106 473.154L154.823 412.751L204.493 377.972L259.446 403.596L264.733 463.998L215.058 498.781L160.106 473.154ZM204.229 377.849L204.229 377.849L204.229 377.849Z" fill="#FEBE00" stroke="#CD9E13" stroke-width="20"/>
<path d="M332.977 353.425L327.693 293.023L377.363 258.243L432.316 283.867L437.603 344.27L387.928 379.052L332.977 353.425ZM377.099 258.12L377.099 258.12L377.099 258.12Z" fill="#FEBE00" stroke="#CD9E13" stroke-width="20"/>
<path d="M351.544 560.869L346.261 500.467L395.931 465.688L450.884 491.311L456.171 551.714L406.496 586.497L351.544 560.869ZM395.667 465.564L395.667 465.564L395.667 465.564Z" fill="#FEBE00" stroke="#CD9E13" stroke-width="20"/>
<path d="M451.425 342.541L446.142 282.138L495.812 247.359L550.764 272.983L556.051 333.385L506.377 368.168L451.425 342.541ZM495.547 247.236L495.547 247.236L495.547 247.236Z" fill="#FEBE00" stroke="#CD9E13" stroke-width="20"/>
<path d="M472.553 553.827L467.27 493.424L516.94 458.645L571.893 484.268L577.18 544.671L527.505 579.454L472.553 553.827ZM516.675 458.522L516.676 458.522L516.675 458.522Z" fill="#FEBE00" stroke="#CD9E13" stroke-width="20"/>
<path d="M403.405 453.306L398.122 392.903L447.792 358.124L502.745 383.747L508.032 444.15L458.357 478.933L403.405 453.306ZM447.528 358.001L447.528 358.001L447.528 358.001Z" fill="#FEBE00" stroke="#CD9E13" stroke-width="20"/>
</g>
<defs>
<clipPath id="clip0_148_35">
<rect width="512" height="512" rx="100" fill="white"/>
</clipPath>
</defs>
</svg>
