<svg width="150" height="150" viewBox="0 0 150 150" fill="none" xmlns="http://www.w3.org/2000/svg">
<g clip-path="url(#clip0_148_35)">
<path d="M0 20C0 8.9543 8.95431 0 20 0H110C132.091 0 150 17.9086 150 40V130C150 141.046 141.046 150 130 150H40C17.9086 150 0 132.091 0 110V20Z" fill="#FDEA92"/>
<path d="M-2.84288 2.89756L-2.84282 2.89824L-1.28015 20.7639C-1.2558 21.0411 -1.08145 21.2885 -0.832505 21.4045L-0.831744 21.4049L15.4235 28.9856L-2.84288 2.89756ZM-2.84288 2.89756C-2.86696 2.62333 -2.73915 2.34856 -2.5126 2.18993L12.1791 -8.09734C12.4054 -8.25577 12.7079 -8.28222 12.9579 -8.16562L12.958 -8.16561M-2.84288 2.89756L12.958 -8.16561M12.958 -8.16561L29.2112 -0.58703C29.2114 -0.586901 29.2117 -0.586773 29.212 -0.586645C29.4637 -0.468709 29.6366 -0.220396 29.6607 0.0538323C29.6607 0.0538935 29.6607 0.0539532 29.6607 0.0540144L31.2246 17.9205C31.2246 17.9206 31.2246 17.9207 31.2246 17.9208C31.2483 18.1951 31.12 18.4706 30.8933 18.6293L16.2016 28.9166C15.9745 29.0755 15.6726 29.1015 15.424 28.9859L12.958 -8.16561Z" fill="#FEBE00" stroke="#CD9E13" stroke-width="4"/>
<path d="M18.1654 31.034L18.1655 31.0347L19.7281 48.9004C19.7282 48.9005 19.7282 48.9006 19.7282 48.9006C19.7526 49.1777 19.9269 49.4251 20.1758 49.541L20.1766 49.5413L36.4318 57.1221L18.1654 31.034ZM18.1654 31.034C18.1413 30.7598 18.2692 30.485 18.4957 30.3264L33.1874 20.0391C33.4137 19.8807 33.7162 19.8543 33.9662 19.9709L33.9663 19.9709M18.1654 31.034L33.9663 19.9709M33.9663 19.9709L50.2195 27.5494C50.2197 27.5496 50.22 27.5497 50.2203 27.5498C50.472 27.6678 50.6449 27.9161 50.669 28.1903C50.669 28.1904 50.669 28.1904 50.669 28.1905L52.2329 46.057C52.2329 46.0571 52.2329 46.0572 52.2329 46.0573C52.2566 46.3316 52.1283 46.607 51.9016 46.7658L37.2099 57.053C36.9828 57.212 36.6808 57.2379 36.4323 57.1224L33.9663 19.9709Z" fill="#FEBE00" stroke="#CD9E13" stroke-width="4"/>
<path d="M3.53456 63.4847L3.53462 63.4854L5.09729 81.3511C5.0973 81.3511 5.0973 81.3512 5.09731 81.3513C5.12175 81.6284 5.29607 81.8757 5.54494 81.9917L5.5457 81.992L21.8009 89.5728L3.53456 63.4847ZM3.53456 63.4847C3.51048 63.2105 3.6383 62.9357 3.86484 62.7771L18.5566 52.4898C18.7829 52.3314 19.0853 52.3049 19.3354 52.4215L19.3354 52.4216M3.53456 63.4847L19.3354 52.4216M19.3354 52.4216L35.5886 60.0001C35.5889 60.0003 35.5892 60.0004 35.5894 60.0005C35.8411 60.1184 36.014 60.3668 36.0381 60.641C36.0381 60.641 36.0381 60.6411 36.0382 60.6412L37.602 78.5077C37.602 78.5078 37.602 78.5079 37.602 78.508C37.6257 78.7823 37.4975 79.0577 37.2708 79.2164L22.579 89.5037C22.352 89.6627 22.05 89.6886 21.8015 89.573L19.3354 52.4216Z" fill="#FEBE00" stroke="#CD9E13" stroke-width="4"/>
<path d="M-17.0987 34.7857L-17.0987 34.7864L-15.536 52.6521C-15.536 52.6522 -15.536 52.6523 -15.536 52.6524C-15.5115 52.9294 -15.3372 53.1768 -15.0884 53.2927L-15.0876 53.293L1.16764 60.8738L-17.0987 34.7857ZM-17.0987 34.7857C-17.1228 34.5115 -16.995 34.2367 -16.7685 34.0781L-2.07672 23.7908C-1.85045 23.6324 -1.54797 23.606 -1.29791 23.7226L-1.29788 23.7226M-17.0987 34.7857L-1.29788 23.7226M-1.29788 23.7226L14.9553 31.3012C14.9556 31.3013 14.9559 31.3014 14.9561 31.3015C15.2078 31.4195 15.3807 31.6678 15.4048 31.942C15.4048 31.9421 15.4048 31.9421 15.4049 31.9422L16.9687 49.8087C16.9687 49.8088 16.9687 49.8089 16.9687 49.809C16.9924 50.0833 16.8642 50.3587 16.6375 50.5175L1.94573 60.8047C1.71866 60.9637 1.41669 60.9897 1.16816 60.8741L-1.29788 23.7226Z" fill="#FEBE00" stroke="#CD9E13" stroke-width="4"/>
<path d="M33.5468 -0.291165L33.5468 -0.290485L35.1095 17.5752C35.1095 17.5753 35.1095 17.5754 35.1095 17.5755C35.134 17.8525 35.3083 18.0999 35.5571 18.2158L35.5579 18.2161L51.8132 25.7969L33.5468 -0.291165ZM33.5468 -0.291165C33.5227 -0.565396 33.6505 -0.840162 33.8771 -0.998791L48.5688 -11.2861C48.7951 -11.4445 49.0975 -11.4709 49.3476 -11.3543L49.3476 -11.3543M33.5468 -0.291165L49.3476 -11.3543M49.3476 -11.3543L65.6008 -3.77575C65.6011 -3.77563 65.6014 -3.7755 65.6016 -3.77537C65.8533 -3.65743 66.0262 -3.40912 66.0503 -3.13489C66.0504 -3.13483 66.0504 -3.13477 66.0504 -3.13471L67.6142 14.7318C67.6142 14.7319 67.6142 14.732 67.6143 14.7321C67.6379 15.0064 67.5097 15.2818 67.283 15.4406L52.5912 25.7278C52.3642 25.8868 52.0622 25.9127 51.8137 25.7972L49.3476 -11.3543Z" fill="#FEBE00" stroke="#CD9E13" stroke-width="4"/>
<path d="M38.9867 60.4835L38.9868 60.4842L40.5494 78.3498C40.5494 78.3499 40.5495 78.35 40.5495 78.3501C40.5739 78.6272 40.7482 78.8745 40.9971 78.9904L40.9978 78.9908L57.2531 86.5716L38.9867 60.4835ZM38.9867 60.4835C38.9626 60.2093 39.0904 59.9345 39.317 59.7759L54.0087 49.4886C54.235 49.3302 54.5375 49.3037 54.7875 49.4203L54.7876 49.4203M38.9867 60.4835L54.7876 49.4203M54.7876 49.4203L71.0408 56.9989C71.041 56.999 71.0413 56.9992 71.0416 56.9993C71.2933 57.1172 71.4662 57.3655 71.4903 57.6398C71.4903 57.6398 71.4903 57.6399 71.4903 57.6399L73.0542 75.5065C73.0542 75.5066 73.0542 75.5067 73.0542 75.5068C73.0779 75.7811 72.9496 76.0565 72.7229 76.2152L58.0312 86.5025C57.8041 86.6615 57.5021 86.6874 57.2536 86.5718L54.7876 49.4203Z" fill="#FEBE00" stroke="#CD9E13" stroke-width="4"/>
<path d="M68.2484 -3.47989L68.2485 -3.47921L69.8112 14.3865C69.8112 14.3866 69.8112 14.3866 69.8112 14.3867C69.8356 14.6638 70.0099 14.9111 70.2588 15.0271L70.2596 15.0274L86.5148 22.6082L68.2484 -3.47989ZM68.2484 -3.47989C68.2243 -3.75412 68.3522 -4.02888 68.5787 -4.18751L83.2704 -14.4748C83.4967 -14.6332 83.7992 -14.6597 84.0493 -14.5431L84.0493 -14.543M68.2484 -3.47989L84.0493 -14.543M84.0493 -14.543L100.302 -6.96447C100.303 -6.96435 100.303 -6.96422 100.303 -6.96409C100.555 -6.84615 100.728 -6.59784 100.752 -6.32361C100.752 -6.32355 100.752 -6.32349 100.752 -6.32343L102.316 11.5431C102.316 11.5432 102.316 11.5433 102.316 11.5434C102.34 11.8177 102.211 12.0931 101.985 12.2518L87.2929 22.5391C87.0658 22.6981 86.7639 22.724 86.5153 22.6084L84.0493 -14.543Z" fill="#FEBE00" stroke="#CD9E13" stroke-width="4"/>
<path d="M74.4384 58.4203L74.4384 58.4209L76.0011 76.2866C76.0011 76.2867 76.0011 76.2868 76.0011 76.2869C76.0256 76.5639 76.1999 76.8113 76.4487 76.9272L76.4495 76.9276L92.7048 84.5083L74.4384 58.4203ZM74.4384 58.4203C74.4143 58.146 74.5421 57.8713 74.7687 57.7126L89.4604 47.4254C89.6867 47.2669 89.9891 47.2405 90.2392 47.3571L90.2392 47.3571M74.4384 58.4203L90.2392 47.3571M90.2392 47.3571L106.492 54.9357C106.493 54.9358 106.493 54.9359 106.493 54.9361C106.745 55.054 106.918 55.3023 106.942 55.5765C106.942 55.5766 106.942 55.5767 106.942 55.5767L108.506 73.4432C108.506 73.4433 108.506 73.4434 108.506 73.4435C108.53 73.7178 108.401 73.9933 108.175 74.152L93.4828 84.4393C93.2558 84.5982 92.9538 84.6242 92.7053 84.5086L90.2392 47.3571Z" fill="#FEBE00" stroke="#CD9E13" stroke-width="4"/>
<path d="M54.1801 28.9708L54.1801 28.9715L55.7428 46.8371C55.7671 47.1143 55.9415 47.3618 56.1904 47.4778L56.1912 47.4781L72.4465 55.0589L54.1801 28.9708ZM54.1801 28.9708C54.156 28.6966 54.2838 28.4218 54.5104 28.2632L69.2021 17.9759C69.4284 17.8175 69.7308 17.791 69.9809 17.9076L69.9809 17.9076M54.1801 28.9708L69.9809 17.9076M69.9809 17.9076L86.2341 25.4862C86.2344 25.4863 86.2347 25.4865 86.2349 25.4866C86.4866 25.6045 86.6595 25.8528 86.6836 26.1271C86.6836 26.1271 86.6837 26.1272 86.6837 26.1273L88.2475 43.9938C88.2475 43.9939 88.2475 43.994 88.2476 43.9941C88.2712 44.2684 88.143 44.5438 87.9163 44.7025L73.2245 54.9898C72.9975 55.1488 72.6955 55.1747 72.447 55.0591L69.9809 17.9076Z" fill="#FEBE00" stroke="#CD9E13" stroke-width="4"/>
<path d="M58.6806 89.0304L58.6806 89.031L60.2433 106.897C60.2676 107.174 60.442 107.421 60.6909 107.537L60.6917 107.538L76.9469 115.118L58.6806 89.0304ZM58.6806 89.0304C58.6565 88.7561 58.7843 88.4814 59.0108 88.3227L73.7026 78.0355C73.9288 77.877 74.2313 77.8506 74.4814 77.9672L74.4814 77.9672M58.6806 89.0304L74.4814 77.9672M74.4814 77.9672L90.7346 85.5458C90.7349 85.5459 90.7351 85.546 90.7354 85.5462C90.9871 85.6641 91.16 85.9124 91.1841 86.1866C91.1841 86.1867 91.1841 86.1868 91.1841 86.1868L92.748 104.053C92.748 104.053 92.748 104.054 92.748 104.054C92.7717 104.328 92.6435 104.603 92.4168 104.762L77.725 115.049C77.498 115.208 77.196 115.234 76.9475 115.119L74.4814 77.9672Z" fill="#FEBE00" stroke="#CD9E13" stroke-width="4"/>
<path d="M79.6889 117.167L79.6889 117.168L81.2516 135.033C81.2516 135.033 81.2516 135.033 81.2516 135.033C81.2761 135.311 81.4504 135.558 81.6992 135.674L81.7 135.674L97.9552 143.255L79.6889 117.167ZM79.6889 117.167C79.6648 116.893 79.7926 116.618 80.0191 116.459L94.7109 106.172C94.9371 106.014 95.2396 105.987 95.4897 106.104L95.4897 106.104M79.6889 117.167L95.4897 106.104M95.4897 106.104L111.743 113.682C111.743 113.682 111.743 113.683 111.744 113.683C111.995 113.801 112.168 114.049 112.192 114.323C112.192 114.323 112.192 114.323 112.192 114.323L113.756 132.19C113.756 132.19 113.756 132.19 113.756 132.19C113.78 132.464 113.652 132.74 113.425 132.899L98.7333 143.186C98.5063 143.345 98.2043 143.371 97.9558 143.255L95.4897 106.104Z" fill="#FEBE00" stroke="#CD9E13" stroke-width="4"/>
<path d="M65.058 149.618L65.0581 149.618L66.6207 167.484C66.6207 167.484 66.6207 167.484 66.6208 167.484C66.6452 167.761 66.8195 168.009 67.0684 168.124L67.0691 168.125L83.3244 175.706L65.058 149.618ZM65.058 149.618C65.0339 149.343 65.1617 149.069 65.3883 148.91L80.08 138.623C80.3063 138.464 80.6088 138.438 80.8588 138.554L80.8589 138.554M65.058 149.618L80.8589 138.554M80.8589 138.554L97.112 146.133C97.1123 146.133 97.1126 146.133 97.1129 146.133C97.3645 146.251 97.5375 146.5 97.5616 146.774C97.5616 146.774 97.5616 146.774 97.5616 146.774L99.1255 164.64C99.1255 164.641 99.1255 164.641 99.1255 164.641C99.1492 164.915 99.0209 165.191 98.7942 165.349L84.1025 175.637C83.8754 175.796 83.5734 175.821 83.3249 175.706L80.8589 138.554Z" fill="#FEBE00" stroke="#CD9E13" stroke-width="4"/>
<path d="M44.4247 120.919L44.4248 120.919L45.9874 138.785C45.9874 138.785 45.9874 138.785 45.9874 138.785C46.0119 139.062 46.1862 139.31 46.4351 139.426L46.4358 139.426L62.6911 147.007L44.4247 120.919ZM44.4247 120.919C44.4006 120.644 44.5284 120.37 44.755 120.211L59.4467 109.924C59.673 109.765 59.9755 109.739 60.2255 109.855L60.2256 109.855M44.4247 120.919L60.2256 109.855M60.2256 109.855L76.4787 117.434C76.479 117.434 76.4793 117.434 76.4796 117.434C76.7312 117.552 76.9042 117.801 76.9283 118.075C76.9283 118.075 76.9283 118.075 76.9283 118.075L78.4922 135.942C78.4922 135.942 78.4922 135.942 78.4922 135.942C78.5159 136.216 78.3876 136.492 78.1609 136.65L63.4692 146.938C63.2421 147.097 62.9401 147.122 62.6916 147.007L60.2256 109.855Z" fill="#FEBE00" stroke="#CD9E13" stroke-width="4"/>
<path d="M95.0702 85.8416L95.0703 85.8423L96.6329 103.708C96.6329 103.708 96.6329 103.708 96.633 103.708C96.6574 103.985 96.8317 104.233 97.0806 104.349L97.0813 104.349L113.337 111.93L95.0702 85.8416ZM95.0702 85.8416C95.0461 85.5674 95.1739 85.2927 95.4005 85.134L110.092 74.8468C110.318 74.6883 110.621 74.6619 110.871 74.7785L110.871 74.7785M95.0702 85.8416L110.871 74.7785M110.871 74.7785L127.124 82.3571C127.125 82.3572 127.125 82.3573 127.125 82.3574C127.377 82.4754 127.55 82.7237 127.574 82.9979C127.574 82.998 127.574 82.998 127.574 82.9981L129.138 100.865C129.138 100.865 129.138 100.865 129.138 100.865C129.161 101.139 129.033 101.415 128.806 101.573L114.115 111.861C113.888 112.02 113.586 112.046 113.337 111.93L110.871 74.7785Z" fill="#FEBE00" stroke="#CD9E13" stroke-width="4"/>
<path d="M100.51 146.616L100.51 146.617L102.073 164.483C102.073 164.483 102.073 164.483 102.073 164.483C102.097 164.76 102.272 165.007 102.521 165.123L102.521 165.124L118.777 172.704L100.51 146.616ZM100.51 146.616C100.486 146.342 100.614 146.067 100.84 145.909L115.532 135.621C115.758 135.463 116.061 135.437 116.311 135.553L116.311 135.553M100.51 146.616L116.311 135.553M116.311 135.553L132.564 143.132C132.564 143.132 132.565 143.132 132.565 143.132C132.817 143.25 132.99 143.498 133.014 143.773C133.014 143.773 133.014 143.773 133.014 143.773L134.578 161.639C134.578 161.639 134.578 161.639 134.578 161.64C134.601 161.914 134.473 162.189 134.246 162.348L119.555 172.635C119.328 172.794 119.026 172.82 118.777 172.705L116.311 135.553Z" fill="#FEBE00" stroke="#CD9E13" stroke-width="4"/>
<path d="M129.772 82.6529L129.772 82.6536L131.335 100.519C131.335 100.519 131.335 100.519 131.335 100.52C131.359 100.797 131.533 101.044 131.782 101.16L131.783 101.16L148.038 108.741L129.772 82.6529ZM129.772 82.6529C129.748 82.3787 129.876 82.1039 130.102 81.9453L144.794 71.658C145.02 71.4996 145.323 71.4731 145.573 71.5898L145.573 71.5898M129.772 82.6529L145.573 71.5898M145.573 71.5898L161.826 79.1683C161.826 79.1685 161.826 79.1686 161.827 79.1687C162.078 79.2867 162.251 79.535 162.275 79.8092C162.275 79.8093 162.275 79.8093 162.275 79.8094L163.839 97.6759C163.839 97.676 163.839 97.6761 163.839 97.6762C163.863 97.9505 163.735 98.2259 163.508 98.3847L148.816 108.672C148.589 108.831 148.287 108.857 148.039 108.741L145.573 71.5898Z" fill="#FEBE00" stroke="#CD9E13" stroke-width="4"/>
<path d="M135.962 144.553L135.962 144.554L137.525 162.419C137.525 162.42 137.525 162.42 137.525 162.42C137.549 162.697 137.723 162.944 137.972 163.06L137.973 163.06L154.228 170.641L135.962 144.553ZM135.962 144.553C135.938 144.279 136.066 144.004 136.292 143.845L150.984 133.558C151.21 133.4 151.513 133.373 151.763 133.49L151.763 133.49M135.962 144.553L151.763 133.49M151.763 133.49L168.016 141.068C168.016 141.069 168.016 141.069 168.017 141.069C168.268 141.187 168.441 141.435 168.465 141.709C168.465 141.709 168.465 141.709 168.465 141.71L170.029 159.576C170.029 159.576 170.029 159.576 170.029 159.576C170.053 159.851 169.925 160.126 169.698 160.285L155.006 170.572C154.779 170.731 154.477 170.757 154.229 170.641L151.763 133.49Z" fill="#FEBE00" stroke="#CD9E13" stroke-width="4"/>
<path d="M115.704 115.104L115.704 115.104L117.266 132.97C117.291 133.247 117.465 133.495 117.714 133.611L117.715 133.611L133.97 141.192L115.704 115.104ZM115.704 115.104C115.679 114.829 115.807 114.555 116.034 114.396L130.726 104.109C130.952 103.95 131.254 103.924 131.504 104.04L131.504 104.04M115.704 115.104L131.504 104.04M131.504 104.04L147.758 111.619C147.758 111.619 147.758 111.619 147.758 111.619C148.01 111.737 148.183 111.986 148.207 112.26C148.207 112.26 148.207 112.26 148.207 112.26L149.771 130.127C149.771 130.127 149.771 130.127 149.771 130.127C149.795 130.401 149.666 130.677 149.44 130.835L134.748 141.123C134.521 141.282 134.219 141.308 133.97 141.192L131.504 104.04Z" fill="#FEBE00" stroke="#CD9E13" stroke-width="4"/>
</g>
<defs>
<clipPath id="clip0_148_35">
<path d="M0 20C0 8.9543 8.95431 0 20 0H110C132.091 0 150 17.9086 150 40V130C150 141.046 141.046 150 130 150H40C17.9086 150 0 132.091 0 110V20Z" fill="white"/>
</clipPath>
</defs>
</svg>
